<mxfile host="app.diagrams.net" agent="Mozilla/5.0 (Windows NT 10.0; Win64; x64) AppleWebKit/537.36 (KHTML, like Gecko) Chrome/134.0.0.0 Safari/537.36" version="26.1.0">
  <diagram name="Page-1" id="Dqjm_s4wM3Hg_-xBNH9p">
    <mxGraphModel dx="1728" dy="943" grid="1" gridSize="10" guides="1" tooltips="1" connect="1" arrows="1" fold="1" page="1" pageScale="1" pageWidth="827" pageHeight="1169" math="0" shadow="0">
      <root>
        <mxCell id="0" />
        <mxCell id="1" parent="0" />
        <mxCell id="aTa-H8B4fmWJjOK4cP6M-1" value="" style="rounded=0;whiteSpace=wrap;html=1;strokeWidth=2;glass=0;fillColor=none;fontSize=20;" vertex="1" parent="1">
          <mxGeometry x="40" y="140" width="1330" height="650" as="geometry" />
        </mxCell>
        <mxCell id="aTa-H8B4fmWJjOK4cP6M-3" value="" style="line;strokeWidth=2;direction=south;html=1;perimeter=backbonePerimeter;points=[];outlineConnect=0;" vertex="1" parent="1">
          <mxGeometry x="220" y="140" width="10" height="650" as="geometry" />
        </mxCell>
        <mxCell id="aTa-H8B4fmWJjOK4cP6M-4" value="" style="rounded=0;whiteSpace=wrap;html=1;" vertex="1" parent="1">
          <mxGeometry x="55" y="200" width="120" height="30" as="geometry" />
        </mxCell>
        <mxCell id="aTa-H8B4fmWJjOK4cP6M-6" value="" style="rounded=0;whiteSpace=wrap;html=1;" vertex="1" parent="1">
          <mxGeometry x="55" y="240" width="120" height="30" as="geometry" />
        </mxCell>
        <mxCell id="aTa-H8B4fmWJjOK4cP6M-7" value="" style="rounded=0;whiteSpace=wrap;html=1;" vertex="1" parent="1">
          <mxGeometry x="55" y="280" width="120" height="30" as="geometry" />
        </mxCell>
        <mxCell id="aTa-H8B4fmWJjOK4cP6M-8" value="" style="rounded=0;whiteSpace=wrap;html=1;" vertex="1" parent="1">
          <mxGeometry x="55" y="320" width="120" height="30" as="geometry" />
        </mxCell>
        <mxCell id="aTa-H8B4fmWJjOK4cP6M-9" value="Text" style="text;html=1;align=center;verticalAlign=middle;whiteSpace=wrap;rounded=0;" vertex="1" parent="1">
          <mxGeometry x="85" y="160" width="60" height="30" as="geometry" />
        </mxCell>
        <mxCell id="aTa-H8B4fmWJjOK4cP6M-10" value="Text" style="text;html=1;align=center;verticalAlign=middle;whiteSpace=wrap;rounded=0;" vertex="1" parent="1">
          <mxGeometry x="85" y="200" width="60" height="30" as="geometry" />
        </mxCell>
        <mxCell id="aTa-H8B4fmWJjOK4cP6M-11" value="Text" style="text;html=1;align=center;verticalAlign=middle;whiteSpace=wrap;rounded=0;" vertex="1" parent="1">
          <mxGeometry x="85" y="240" width="60" height="30" as="geometry" />
        </mxCell>
        <mxCell id="aTa-H8B4fmWJjOK4cP6M-12" value="Text" style="text;html=1;align=center;verticalAlign=middle;whiteSpace=wrap;rounded=0;" vertex="1" parent="1">
          <mxGeometry x="85" y="280" width="60" height="30" as="geometry" />
        </mxCell>
        <mxCell id="aTa-H8B4fmWJjOK4cP6M-14" value="Text" style="text;html=1;align=center;verticalAlign=middle;whiteSpace=wrap;rounded=0;" vertex="1" parent="1">
          <mxGeometry x="85" y="320" width="60" height="30" as="geometry" />
        </mxCell>
        <mxCell id="aTa-H8B4fmWJjOK4cP6M-15" value="" style="ellipse;whiteSpace=wrap;html=1;aspect=fixed;" vertex="1" parent="1">
          <mxGeometry x="360" y="240" width="30" height="30" as="geometry" />
        </mxCell>
        <mxCell id="aTa-H8B4fmWJjOK4cP6M-16" value="" style="endArrow=none;html=1;rounded=0;entryX=1;entryY=1;entryDx=0;entryDy=0;exitX=0.772;exitY=0.904;exitDx=0;exitDy=0;exitPerimeter=0;" edge="1" parent="1" source="aTa-H8B4fmWJjOK4cP6M-15">
          <mxGeometry width="50" height="50" relative="1" as="geometry">
            <mxPoint x="379.99660171779817" y="265.6066017177983" as="sourcePoint" />
            <mxPoint x="399.99660171779817" y="279.9966017177983" as="targetPoint" />
          </mxGeometry>
        </mxCell>
        <mxCell id="aTa-H8B4fmWJjOK4cP6M-17" value="" style="rounded=0;whiteSpace=wrap;html=1;" vertex="1" parent="1">
          <mxGeometry x="414" y="240" width="746" height="40" as="geometry" />
        </mxCell>
        <mxCell id="aTa-H8B4fmWJjOK4cP6M-18" value="" style="whiteSpace=wrap;html=1;aspect=fixed;" vertex="1" parent="1">
          <mxGeometry x="414" y="320" width="80" height="80" as="geometry" />
        </mxCell>
        <mxCell id="aTa-H8B4fmWJjOK4cP6M-19" value="" style="endArrow=none;html=1;rounded=0;exitX=0;exitY=1;exitDx=0;exitDy=0;entryX=1;entryY=0;entryDx=0;entryDy=0;" edge="1" parent="1" source="aTa-H8B4fmWJjOK4cP6M-18" target="aTa-H8B4fmWJjOK4cP6M-18">
          <mxGeometry width="50" height="50" relative="1" as="geometry">
            <mxPoint x="474" y="350" as="sourcePoint" />
            <mxPoint x="524" y="300" as="targetPoint" />
          </mxGeometry>
        </mxCell>
        <mxCell id="aTa-H8B4fmWJjOK4cP6M-20" value="" style="endArrow=none;html=1;rounded=0;exitX=1;exitY=1;exitDx=0;exitDy=0;entryX=0;entryY=0;entryDx=0;entryDy=0;" edge="1" parent="1" source="aTa-H8B4fmWJjOK4cP6M-18" target="aTa-H8B4fmWJjOK4cP6M-18">
          <mxGeometry width="50" height="50" relative="1" as="geometry">
            <mxPoint x="454" y="390" as="sourcePoint" />
            <mxPoint x="534" y="310" as="targetPoint" />
          </mxGeometry>
        </mxCell>
        <mxCell id="aTa-H8B4fmWJjOK4cP6M-21" value="" style="whiteSpace=wrap;html=1;aspect=fixed;" vertex="1" parent="1">
          <mxGeometry x="414" y="420" width="80" height="80" as="geometry" />
        </mxCell>
        <mxCell id="aTa-H8B4fmWJjOK4cP6M-22" value="" style="endArrow=none;html=1;rounded=0;exitX=0;exitY=1;exitDx=0;exitDy=0;entryX=1;entryY=0;entryDx=0;entryDy=0;" edge="1" parent="1" source="aTa-H8B4fmWJjOK4cP6M-21" target="aTa-H8B4fmWJjOK4cP6M-21">
          <mxGeometry width="50" height="50" relative="1" as="geometry">
            <mxPoint x="474" y="440" as="sourcePoint" />
            <mxPoint x="524" y="390" as="targetPoint" />
          </mxGeometry>
        </mxCell>
        <mxCell id="aTa-H8B4fmWJjOK4cP6M-23" value="" style="endArrow=none;html=1;rounded=0;exitX=1;exitY=1;exitDx=0;exitDy=0;entryX=0;entryY=0;entryDx=0;entryDy=0;" edge="1" parent="1" source="aTa-H8B4fmWJjOK4cP6M-21" target="aTa-H8B4fmWJjOK4cP6M-21">
          <mxGeometry width="50" height="50" relative="1" as="geometry">
            <mxPoint x="454" y="480" as="sourcePoint" />
            <mxPoint x="534" y="400" as="targetPoint" />
          </mxGeometry>
        </mxCell>
        <mxCell id="aTa-H8B4fmWJjOK4cP6M-24" value="" style="whiteSpace=wrap;html=1;aspect=fixed;" vertex="1" parent="1">
          <mxGeometry x="414" y="520" width="80" height="80" as="geometry" />
        </mxCell>
        <mxCell id="aTa-H8B4fmWJjOK4cP6M-25" value="" style="endArrow=none;html=1;rounded=0;exitX=0;exitY=1;exitDx=0;exitDy=0;entryX=1;entryY=0;entryDx=0;entryDy=0;" edge="1" parent="1" source="aTa-H8B4fmWJjOK4cP6M-24" target="aTa-H8B4fmWJjOK4cP6M-24">
          <mxGeometry width="50" height="50" relative="1" as="geometry">
            <mxPoint x="474" y="540" as="sourcePoint" />
            <mxPoint x="524" y="490" as="targetPoint" />
            <Array as="points">
              <mxPoint x="474" y="540" />
            </Array>
          </mxGeometry>
        </mxCell>
        <mxCell id="aTa-H8B4fmWJjOK4cP6M-26" value="" style="endArrow=none;html=1;rounded=0;exitX=1;exitY=1;exitDx=0;exitDy=0;entryX=0;entryY=0;entryDx=0;entryDy=0;" edge="1" parent="1" source="aTa-H8B4fmWJjOK4cP6M-24" target="aTa-H8B4fmWJjOK4cP6M-24">
          <mxGeometry width="50" height="50" relative="1" as="geometry">
            <mxPoint x="454" y="580" as="sourcePoint" />
            <mxPoint x="534" y="500" as="targetPoint" />
          </mxGeometry>
        </mxCell>
        <mxCell id="aTa-H8B4fmWJjOK4cP6M-28" value="&lt;h1 style=&quot;margin-top: 0px;&quot;&gt;Heading&lt;/h1&gt;&lt;p&gt;Lorem ipsum dolor sit amet, consectetur adipisicing elit, sed do eiusmod tempor incididunt ut labore et dolore magna aliqua.&lt;/p&gt;" style="text;html=1;whiteSpace=wrap;overflow=hidden;rounded=0;" vertex="1" parent="1">
          <mxGeometry x="520" y="320" width="250" height="80" as="geometry" />
        </mxCell>
        <mxCell id="aTa-H8B4fmWJjOK4cP6M-29" value="&lt;h1 style=&quot;margin-top: 0px;&quot;&gt;Heading&lt;/h1&gt;&lt;p&gt;Lorem ipsum dolor sit amet, consectetur adipisicing elit, sed do eiusmod tempor incididunt ut labore et dolore magna aliqua.&lt;/p&gt;" style="text;html=1;whiteSpace=wrap;overflow=hidden;rounded=0;" vertex="1" parent="1">
          <mxGeometry x="520" y="420" width="250" height="80" as="geometry" />
        </mxCell>
        <mxCell id="aTa-H8B4fmWJjOK4cP6M-30" value="&lt;h1 style=&quot;margin-top: 0px;&quot;&gt;Heading&lt;/h1&gt;&lt;p&gt;Lorem ipsum dolor sit amet, consectetur adipisicing elit, sed do eiusmod tempor incididunt ut labore et dolore magna aliqua.&lt;/p&gt;" style="text;html=1;whiteSpace=wrap;overflow=hidden;rounded=0;" vertex="1" parent="1">
          <mxGeometry x="520" y="520" width="250" height="80" as="geometry" />
        </mxCell>
        <mxCell id="aTa-H8B4fmWJjOK4cP6M-32" value="Text" style="text;html=1;align=center;verticalAlign=middle;whiteSpace=wrap;rounded=0;strokeWidth=3;fontSize=36;" vertex="1" parent="1">
          <mxGeometry x="394" y="180" width="786" height="30" as="geometry" />
        </mxCell>
        <mxCell id="aTa-H8B4fmWJjOK4cP6M-33" value="" style="endArrow=none;html=1;rounded=0;" edge="1" parent="1">
          <mxGeometry width="50" height="50" relative="1" as="geometry">
            <mxPoint x="1120" y="280" as="sourcePoint" />
            <mxPoint x="1120" y="240" as="targetPoint" />
          </mxGeometry>
        </mxCell>
        <mxCell id="aTa-H8B4fmWJjOK4cP6M-39" value="" style="group" vertex="1" connectable="0" parent="1">
          <mxGeometry x="183" y="140" width="40" height="40" as="geometry" />
        </mxCell>
        <mxCell id="aTa-H8B4fmWJjOK4cP6M-34" value="" style="line;strokeWidth=1;html=1;" vertex="1" parent="aTa-H8B4fmWJjOK4cP6M-39">
          <mxGeometry y="15" width="40" height="10" as="geometry" />
        </mxCell>
        <mxCell id="aTa-H8B4fmWJjOK4cP6M-35" value="" style="line;strokeWidth=1;html=1;" vertex="1" parent="aTa-H8B4fmWJjOK4cP6M-39">
          <mxGeometry y="5" width="40" height="10" as="geometry" />
        </mxCell>
        <mxCell id="aTa-H8B4fmWJjOK4cP6M-36" value="" style="line;strokeWidth=1;html=1;" vertex="1" parent="aTa-H8B4fmWJjOK4cP6M-39">
          <mxGeometry y="25" width="40" height="10" as="geometry" />
        </mxCell>
        <mxCell id="aTa-H8B4fmWJjOK4cP6M-38" value="" style="rounded=0;whiteSpace=wrap;html=1;fillColor=none;" vertex="1" parent="aTa-H8B4fmWJjOK4cP6M-39">
          <mxGeometry width="40" height="40" as="geometry" />
        </mxCell>
        <mxCell id="aTa-H8B4fmWJjOK4cP6M-40" value="" style="rounded=0;whiteSpace=wrap;html=1;" vertex="1" parent="1">
          <mxGeometry x="40" y="730" width="183" height="60" as="geometry" />
        </mxCell>
        <mxCell id="aTa-H8B4fmWJjOK4cP6M-41" value="About" style="text;html=1;align=center;verticalAlign=middle;whiteSpace=wrap;rounded=0;" vertex="1" parent="1">
          <mxGeometry x="102" y="745" width="60" height="30" as="geometry" />
        </mxCell>
      </root>
    </mxGraphModel>
  </diagram>
</mxfile>
